<svg xmlns="http://www.w3.org/2000/svg" width="1088" height="687.962" viewBox="0 0 1088 687.962">
  <g id="Group_12" data-name="Group 12" transform="translate(-57 -56)">
    <g id="Group_11" data-name="Group 11" transform="translate(57 56)">
      <path id="Path_83" data-name="Path 83" d="M1017.81,560.461c-5.27,45.15-16.22,81.4-31.25,110.31-20,38.52-54.21,54.04-84.77,70.28a193.275,193.275,0,0,1-27.46,11.94c-55.61,19.3-117.85,14.18-166.74,3.99a657.282,657.282,0,0,0-104.09-13.16q-14.97-.675-29.97-.67c-15.42.02-293.07,5.29-360.67-131.57-16.69-33.76-28.13-75-32.24-125.27-11.63-142.12,52.29-235.46,134.74-296.47,155.97-115.41,369.76-110.57,523.43,7.88C941.15,276.621,1036.99,396.031,1017.81,560.461Z" transform="translate(-56 -106.019)" fill="#3f3d56"/>
      <path id="Path_84" data-name="Path 84" d="M986.56,670.771c-20,38.52-47.21,64.04-77.77,80.28a193.272,193.272,0,0,1-27.46,11.94c-55.61,19.3-117.85,14.18-166.74,3.99a657.3,657.3,0,0,0-104.09-13.16q-14.97-.675-29.97-.67-23.13.03-46.25,1.72c-100.17,7.36-253.82-6.43-321.42-143.29L382,283.981,444.95,445.6l20.09,51.59,55.37-75.98L549,381.981l130.2,149.27,36.8-81.27L970.78,657.9l14.21,11.59Z" transform="translate(-56 -106.019)" fill="#f2f2f2"/>
      <path id="Path_85" data-name="Path 85" d="M302,282.962l26-57,36,83-31-60Z" opacity="0.1"/>
      <path id="Path_86" data-name="Path 86" d="M610.5,753.821q-14.97-.675-29.97-.67L465.04,497.191Z" transform="translate(-56 -106.019)" opacity="0.1"/>
      <path id="Path_87" data-name="Path 87" d="M464.411,315.191,493,292.962l130,150-132-128Z" opacity="0.1"/>
      <path id="Path_88" data-name="Path 88" d="M908.79,751.051a193.265,193.265,0,0,1-27.46,11.94L679.2,531.251Z" transform="translate(-56 -106.019)" opacity="0.1"/>
      <circle id="Ellipse_11" data-name="Ellipse 11" cx="3" cy="3" r="3" transform="translate(479 98.962)" fill="#f2f2f2"/>
      <circle id="Ellipse_12" data-name="Ellipse 12" cx="3" cy="3" r="3" transform="translate(396 201.962)" fill="#f2f2f2"/>
      <circle id="Ellipse_13" data-name="Ellipse 13" cx="2" cy="2" r="2" transform="translate(600 220.962)" fill="#f2f2f2"/>
      <circle id="Ellipse_14" data-name="Ellipse 14" cx="2" cy="2" r="2" transform="translate(180 265.962)" fill="#f2f2f2"/>
      <circle id="Ellipse_15" data-name="Ellipse 15" cx="2" cy="2" r="2" transform="translate(612 96.962)" fill="#f2f2f2"/>
      <circle id="Ellipse_16" data-name="Ellipse 16" cx="2" cy="2" r="2" transform="translate(736 192.962)" fill="#f2f2f2"/>
      <circle id="Ellipse_17" data-name="Ellipse 17" cx="2" cy="2" r="2" transform="translate(858 344.962)" fill="#f2f2f2"/>
      <path id="Path_89" data-name="Path 89" d="M306,121.222h-2.76v-2.76h-1.48v2.76H299V122.7h2.76v2.759h1.48V122.7H306Z" fill="#f2f2f2"/>
      <path id="Path_90" data-name="Path 90" d="M848,424.222h-2.76v-2.76h-1.48v2.76H841V425.7h2.76v2.759h1.48V425.7H848Z" fill="#f2f2f2"/>
      <path id="Path_91" data-name="Path 91" d="M1144,719.981c0,16.569-243.557,74-544,74s-544-57.431-544-74,243.557,14,544,14S1144,703.413,1144,719.981Z" transform="translate(-56 -106.019)" fill="#91f6e8"/>
      <path id="Path_92" data-name="Path 92" d="M1144,719.981c0,16.569-243.557,74-544,74s-544-57.431-544-74,243.557,14,544,14S1144,703.413,1144,719.981Z" transform="translate(-56 -106.019)" opacity="0.1"/>
      <ellipse id="Ellipse_18" data-name="Ellipse 18" cx="544" cy="30" rx="544" ry="30" transform="translate(0 583.962)" fill="#91f6e8"/>

      <path id="Path_95" data-name="Path 95" d="M193,596.547c0,55.343,34.719,100.126,77.626,100.126" transform="translate(0 -106.019)" fill="#3f3d56"/>
      <path id="Path_96" data-name="Path 96" d="M270.626,696.673c0-55.965,38.745-101.251,86.626-101.251" transform="translate(0 -106.019)" fill="#6c63ff"/>
      <path id="Path_97" data-name="Path 97" d="M221.125,601.564c0,52.57,22.14,95.109,49.5,95.109" transform="translate(0 -106.019)" fill="#6c63ff"/>
      <path id="Path_98" data-name="Path 98" d="M270.626,696.673c0-71.511,44.783-129.377,100.126-129.377" transform="translate(0 -106.019)" fill="#3f3d56"/>


      <path id="Path_99" data-name="Path 99" d="M254.3,697.379s11.009-.339,14.326-2.7,16.934-5.183,17.757-1.395,16.544,18.844,4.115,18.945-28.879-1.936-32.19-3.953S254.3,697.379,254.3,697.379Z" transform="translate(-2 -106.019)" fill="#a8a8a8"/>
      <path id="Path_100" data-name="Path 100" d="M290.716,710.909c-12.429.1-28.879-1.936-32.19-3.953-2.522-1.536-3.527-7.048-3.863-9.591l-.368.014s.7,8.879,4.009,10.9,19.761,4.053,32.19,3.953c3.588-.029,4.827-1.305,4.759-3.2C294.755,710.174,293.386,710.887,290.716,710.909Z" transform="translate(-2 -106.019)" opacity="0.2"/>

      <path id="Path_101" data-name="Path 101" d="M777.429,633.081c0,38.029,23.857,68.8,53.341,68.8" transform="translate(-56 -106.019)" fill="#3f3d56"/>
      <path id="Path_102" data-name="Path 102" d="M830.769,701.882c0-38.456,26.623-69.575,59.525-69.575" transform="translate(-56 -106.019)" fill="#6c63ff"/>
      <path id="Path_103" data-name="Path 103" d="M796.755,636.528c0,36.124,15.213,65.354,34.014,65.354" transform="translate(-56 -106.019)" fill="#6c63ff"/>
      <path id="Path_104" data-name="Path 104" d="M830.769,701.882c0-49.139,30.773-88.9,68.8-88.9" transform="translate(-56 -106.019)" fill="#3f3d56"/>
      <path id="Path_105" data-name="Path 105" d="M819.548,702.367s7.565-.233,9.844-1.856,11.636-3.562,12.2-.958,11.368,12.949,2.828,13.018-19.844-1.33-22.119-2.716S819.548,702.367,819.548,702.367Z" transform="translate(-56 -106.019)" fill="#a8a8a8"/>
      <path id="Path_106" data-name="Path 106" d="M844.574,711.664c-8.54.069-19.844-1.33-22.119-2.716-1.733-1.056-2.423-4.843-2.654-6.59l-.253.01s.479,6.1,2.755,7.487,13.579,2.785,22.119,2.716c2.465-.02,3.317-.9,3.27-2.2C847.349,711.159,846.409,711.649,844.574,711.664Z" transform="translate(-56 -106.019)" opacity="0.2"/>
      <path id="Path_107" data-name="Path 107" d="M949.813,724.718s11.36-1.729,14.5-4.591,16.89-7.488,18.217-3.667,19.494,17.447,6.633,19.107-30.153,1.609-33.835-.065S949.813,724.718,949.813,724.718Z" transform="translate(-56 -106.019)" fill="#a8a8a8"/>
      <path id="Path_108" data-name="Path 108" d="M989.228,734.173c-12.86,1.659-30.153,1.609-33.835-.065-2.8-1.275-4.535-6.858-5.2-9.45l-.379.061s1.833,9.109,5.516,10.783,20.975,1.725,33.835.065c3.712-.479,4.836-1.956,4.529-3.906C993.319,732.907,991.991,733.817,989.228,734.173Z" transform="translate(-56 -106.019)" opacity="0.2"/>
      <path id="Path_109" data-name="Path 109" d="M670.26,723.9s9.587-1.459,12.237-3.875,14.255-6.32,15.374-3.095,16.452,14.725,5.6,16.125-25.448,1.358-28.555-.055S670.26,723.9,670.26,723.9Z" transform="translate(-56 -106.019)" fill="#a8a8a8"/>
      <path id="Path_110" data-name="Path 110" d="M703.524,731.875c-10.853,1.4-25.448,1.358-28.555-.055-2.367-1.076-3.827-5.788-4.39-7.976l-.32.051s1.547,7.687,4.655,9.1,17.7,1.456,28.555.055c3.133-.4,4.081-1.651,3.822-3.3C706.977,730.807,705.856,731.575,703.524,731.875Z" transform="translate(-56 -106.019)" opacity="0.2"/>
      <path id="Path_111" data-name="Path 111" d="M178.389,719.109s7.463-1.136,9.527-3.016,11.1-4.92,11.969-2.409,12.808,11.463,4.358,12.553-19.811,1.057-22.23-.043S178.389,719.109,178.389,719.109Z" transform="translate(-56 -106.019)" fill="#a8a8a8"/>
      <path id="Path_112" data-name="Path 112" d="M204.285,725.321c-8.449,1.09-19.811,1.057-22.23-.043-1.842-.838-2.979-4.506-3.417-6.209l-.249.04s1.2,5.984,3.624,7.085,13.781,1.133,22.23.043c2.439-.315,3.177-1.285,2.976-2.566C206.973,724.489,206.1,725.087,204.285,725.321Z" transform="translate(-56 -106.019)" opacity="0.2"/>


    </g>
    <g id="bird_keytar" transform="translate(110 450) scale(2.5) rotate(25)">
    <g fill="#f79420"><path d="M25.772 60.8c0 1.768-.836 3.2-1.866 3.2c-1.031 0-1.866-1.433-1.866-3.2v-7.393c0-1.768.835-3.2 1.866-3.2c1.03 0 1.866 1.433 1.866 3.2V60.8"/><path d="M39.586 60.8c0 1.768-.836 3.2-1.866 3.2c-1.03 0-1.866-1.433-1.866-3.2v-7.393c0-1.768.836-3.2 1.866-3.2c1.03 0 1.866 1.433 1.866 3.2V60.8"/></g>
    <g fill="#58767d"><path d="M.267 40.94c0-4.198 6.1-2.936 10.968-2.936c4.872 0 9.199-.078 9.199 4.118c0 4.204-3.95 7.607-8.818 7.607c-4.872 0-11.349-4.586-11.349-8.789"/><path d="M63.734 40.94c0-4.198-6.1-2.936-10.973-2.936c-4.871 0-9.198-.078-9.198 4.118c0 4.204 3.95 7.607 8.821 7.607c4.869 0 11.35-4.586 11.35-8.789"/></g>
    <path fill="#7094a6" d="M8.03 38.13c0 9.657 10.778 17.479 24.09 17.479c13.309 0 24.09-7.821 24.09-17.479c0-9.648-10.781-33.452-24.09-33.452c-13.312 0-24.09 23.804-24.09 33.452"/>
    <ellipse fill="#f4f5f5" cx="22.255" cy="21.395" rx="4.932" ry="5.98"/>
    <path fill="#25333a" d="M25.527 21.625c0 2.192-1.466 3.968-3.27 3.968c-1.808 0-3.274-1.775-3.274-3.968c0-2.189 1.466-3.968 3.274-3.968c1.804 0 3.27 1.779 3.27 3.968"/>
    <ellipse fill="#f4f5f5" cx="42.02" cy="21.395" rx="4.932" ry="5.98"/>
    <ellipse fill="#25333a" cx="42.02" cy="21.625" rx="3.271" ry="3.968"/>
    <path fill="#f05a2a" d="M26.03 27.692c0-2.895 2.725-.708 6.085-.708c3.362 0 6.084-2.187 6.084.708c0 2.9-2.723 8.378-6.084 8.378c-3.36 0-6.085-5.478-6.085-8.378"/>
    <path fill="#f79420" d="M26.03 25.718c0-2.895 2.726-.709 6.084-.709s6.084-2.185 6.084.709c0 2.899-2.726 8.377-6.084 8.377s-6.084-5.478-6.084-8.377"/>
    </g>
    <g id="bird_keytar" transform="translate(230 340) scale(2.5) rotate(25)">
    <g fill="#f79420"><path d="M25.772 60.8c0 1.768-.836 3.2-1.866 3.2c-1.031 0-1.866-1.433-1.866-3.2v-7.393c0-1.768.835-3.2 1.866-3.2c1.03 0 1.866 1.433 1.866 3.2V60.8"/><path d="M39.586 60.8c0 1.768-.836 3.2-1.866 3.2c-1.03 0-1.866-1.433-1.866-3.2v-7.393c0-1.768.836-3.2 1.866-3.2c1.03 0 1.866 1.433 1.866 3.2V60.8"/></g>
    <g fill="#58767d"><path d="M.267 40.94c0-4.198 6.1-2.936 10.968-2.936c4.872 0 9.199-.078 9.199 4.118c0 4.204-3.95 7.607-8.818 7.607c-4.872 0-11.349-4.586-11.349-8.789"/><path d="M63.734 40.94c0-4.198-6.1-2.936-10.973-2.936c-4.871 0-9.198-.078-9.198 4.118c0 4.204 3.95 7.607 8.821 7.607c4.869 0 11.35-4.586 11.35-8.789"/></g>
    <path fill="#7094a6" d="M8.03 38.13c0 9.657 10.778 17.479 24.09 17.479c13.309 0 24.09-7.821 24.09-17.479c0-9.648-10.781-33.452-24.09-33.452c-13.312 0-24.09 23.804-24.09 33.452"/>
    <ellipse fill="#f4f5f5" cx="22.255" cy="21.395" rx="4.932" ry="5.98"/>
    <path fill="#25333a" d="M25.527 21.625c0 2.192-1.466 3.968-3.27 3.968c-1.808 0-3.274-1.775-3.274-3.968c0-2.189 1.466-3.968 3.274-3.968c1.804 0 3.27 1.779 3.27 3.968"/>
    <ellipse fill="#f4f5f5" cx="42.02" cy="21.395" rx="4.932" ry="5.98"/>
    <ellipse fill="#25333a" cx="42.02" cy="21.625" rx="3.271" ry="3.968"/>
    <path fill="#f05a2a" d="M26.03 27.692c0-2.895 2.725-.708 6.085-.708c3.362 0 6.084-2.187 6.084.708c0 2.9-2.723 8.378-6.084 8.378c-3.36 0-6.085-5.478-6.085-8.378"/>
    <path fill="#f79420" d="M26.03 25.718c0-2.895 2.726-.709 6.084-.709s6.084-2.185 6.084.709c0 2.899-2.726 8.377-6.084 8.377s-6.084-5.478-6.084-8.377"/>
    </g>
    <g id="bird_keytar" transform="translate(350 280) scale(2.5) rotate(25)">
    <g fill="#f79420"><path d="M25.772 60.8c0 1.768-.836 3.2-1.866 3.2c-1.031 0-1.866-1.433-1.866-3.2v-7.393c0-1.768.835-3.2 1.866-3.2c1.03 0 1.866 1.433 1.866 3.2V60.8"/><path d="M39.586 60.8c0 1.768-.836 3.2-1.866 3.2c-1.03 0-1.866-1.433-1.866-3.2v-7.393c0-1.768.836-3.2 1.866-3.2c1.03 0 1.866 1.433 1.866 3.2V60.8"/></g>
    <g fill="#58767d"><path d="M.267 40.94c0-4.198 6.1-2.936 10.968-2.936c4.872 0 9.199-.078 9.199 4.118c0 4.204-3.95 7.607-8.818 7.607c-4.872 0-11.349-4.586-11.349-8.789"/><path d="M63.734 40.94c0-4.198-6.1-2.936-10.973-2.936c-4.871 0-9.198-.078-9.198 4.118c0 4.204 3.95 7.607 8.821 7.607c4.869 0 11.35-4.586 11.35-8.789"/></g>
    <path fill="#7094a6" d="M8.03 38.13c0 9.657 10.778 17.479 24.09 17.479c13.309 0 24.09-7.821 24.09-17.479c0-9.648-10.781-33.452-24.09-33.452c-13.312 0-24.09 23.804-24.09 33.452"/>
    <ellipse fill="#f4f5f5" cx="22.255" cy="21.395" rx="4.932" ry="5.98"/>
    <path fill="#25333a" d="M25.527 21.625c0 2.192-1.466 3.968-3.27 3.968c-1.808 0-3.274-1.775-3.274-3.968c0-2.189 1.466-3.968 3.274-3.968c1.804 0 3.27 1.779 3.27 3.968"/>
    <ellipse fill="#f4f5f5" cx="42.02" cy="21.395" rx="4.932" ry="5.98"/>
    <ellipse fill="#25333a" cx="42.02" cy="21.625" rx="3.271" ry="3.968"/>
    <path fill="#f05a2a" d="M26.03 27.692c0-2.895 2.725-.708 6.085-.708c3.362 0 6.084-2.187 6.084.708c0 2.9-2.723 8.378-6.084 8.378c-3.36 0-6.085-5.478-6.085-8.378"/>
    <path fill="#f79420" d="M26.03 25.718c0-2.895 2.726-.709 6.084-.709s6.084-2.185 6.084.709c0 2.899-2.726 8.377-6.084 8.377s-6.084-5.478-6.084-8.377"/>
    </g>
    <g id="bird_keytar" transform="translate(470 380) scale(2.5) rotate(25)">
    <g fill="#f79420"><path d="M25.772 60.8c0 1.768-.836 3.2-1.866 3.2c-1.031 0-1.866-1.433-1.866-3.2v-7.393c0-1.768.835-3.2 1.866-3.2c1.03 0 1.866 1.433 1.866 3.2V60.8"/><path d="M39.586 60.8c0 1.768-.836 3.2-1.866 3.2c-1.03 0-1.866-1.433-1.866-3.2v-7.393c0-1.768.836-3.2 1.866-3.2c1.03 0 1.866 1.433 1.866 3.2V60.8"/></g>
    <g fill="#58767d"><path d="M.267 40.94c0-4.198 6.1-2.936 10.968-2.936c4.872 0 9.199-.078 9.199 4.118c0 4.204-3.95 7.607-8.818 7.607c-4.872 0-11.349-4.586-11.349-8.789"/><path d="M63.734 40.94c0-4.198-6.1-2.936-10.973-2.936c-4.871 0-9.198-.078-9.198 4.118c0 4.204 3.95 7.607 8.821 7.607c4.869 0 11.35-4.586 11.35-8.789"/></g>
    <path fill="#7094a6" d="M8.03 38.13c0 9.657 10.778 17.479 24.09 17.479c13.309 0 24.09-7.821 24.09-17.479c0-9.648-10.781-33.452-24.09-33.452c-13.312 0-24.09 23.804-24.09 33.452"/>
    <ellipse fill="#f4f5f5" cx="22.255" cy="21.395" rx="4.932" ry="5.98"/>
    <path fill="#25333a" d="M25.527 21.625c0 2.192-1.466 3.968-3.27 3.968c-1.808 0-3.274-1.775-3.274-3.968c0-2.189 1.466-3.968 3.274-3.968c1.804 0 3.27 1.779 3.27 3.968"/>
    <ellipse fill="#f4f5f5" cx="42.02" cy="21.395" rx="4.932" ry="5.98"/>
    <ellipse fill="#25333a" cx="42.02" cy="21.625" rx="3.271" ry="3.968"/>
    <path fill="#f05a2a" d="M26.03 27.692c0-2.895 2.725-.708 6.085-.708c3.362 0 6.084-2.187 6.084.708c0 2.9-2.723 8.378-6.084 8.378c-3.36 0-6.085-5.478-6.085-8.378"/>
    <path fill="#f79420" d="M26.03 25.718c0-2.895 2.726-.709 6.084-.709s6.084-2.185 6.084.709c0 2.899-2.726 8.377-6.084 8.377s-6.084-5.478-6.084-8.377"/>
    </g>
    <g id="bird_keytar" transform="translate(590 450) scale(2.5) rotate(25)">
    <g fill="#f79420"><path d="M25.772 60.8c0 1.768-.836 3.2-1.866 3.2c-1.031 0-1.866-1.433-1.866-3.2v-7.393c0-1.768.835-3.2 1.866-3.2c1.03 0 1.866 1.433 1.866 3.2V60.8"/><path d="M39.586 60.8c0 1.768-.836 3.2-1.866 3.2c-1.03 0-1.866-1.433-1.866-3.2v-7.393c0-1.768.836-3.2 1.866-3.2c1.03 0 1.866 1.433 1.866 3.2V60.8"/></g>
    <g fill="#58767d"><path d="M.267 40.94c0-4.198 6.1-2.936 10.968-2.936c4.872 0 9.199-.078 9.199 4.118c0 4.204-3.95 7.607-8.818 7.607c-4.872 0-11.349-4.586-11.349-8.789"/><path d="M63.734 40.94c0-4.198-6.1-2.936-10.973-2.936c-4.871 0-9.198-.078-9.198 4.118c0 4.204 3.95 7.607 8.821 7.607c4.869 0 11.35-4.586 11.35-8.789"/></g>
    <path fill="#7094a6" d="M8.03 38.13c0 9.657 10.778 17.479 24.09 17.479c13.309 0 24.09-7.821 24.09-17.479c0-9.648-10.781-33.452-24.09-33.452c-13.312 0-24.09 23.804-24.09 33.452"/>
    <ellipse fill="#f4f5f5" cx="22.255" cy="21.395" rx="4.932" ry="5.98"/>
    <path fill="#25333a" d="M25.527 21.625c0 2.192-1.466 3.968-3.27 3.968c-1.808 0-3.274-1.775-3.274-3.968c0-2.189 1.466-3.968 3.274-3.968c1.804 0 3.27 1.779 3.27 3.968"/>
    <ellipse fill="#f4f5f5" cx="42.02" cy="21.395" rx="4.932" ry="5.98"/>
    <ellipse fill="#25333a" cx="42.02" cy="21.625" rx="3.271" ry="3.968"/>
    <path fill="#f05a2a" d="M26.03 27.692c0-2.895 2.725-.708 6.085-.708c3.362 0 6.084-2.187 6.084.708c0 2.9-2.723 8.378-6.084 8.378c-3.36 0-6.085-5.478-6.085-8.378"/>
    <path fill="#f79420" d="M26.03 25.718c0-2.895 2.726-.709 6.084-.709s6.084-2.185 6.084.709c0 2.899-2.726 8.377-6.084 8.377s-6.084-5.478-6.084-8.377"/>
    </g>
    <g id="bird_keytar" transform="translate(710 380) scale(2.5) rotate(25)">
    <g fill="#f79420"><path d="M25.772 60.8c0 1.768-.836 3.2-1.866 3.2c-1.031 0-1.866-1.433-1.866-3.2v-7.393c0-1.768.835-3.2 1.866-3.2c1.03 0 1.866 1.433 1.866 3.2V60.8"/><path d="M39.586 60.8c0 1.768-.836 3.2-1.866 3.2c-1.03 0-1.866-1.433-1.866-3.2v-7.393c0-1.768.836-3.2 1.866-3.2c1.03 0 1.866 1.433 1.866 3.2V60.8"/></g>
    <g fill="#58767d"><path d="M.267 40.94c0-4.198 6.1-2.936 10.968-2.936c4.872 0 9.199-.078 9.199 4.118c0 4.204-3.95 7.607-8.818 7.607c-4.872 0-11.349-4.586-11.349-8.789"/><path d="M63.734 40.94c0-4.198-6.1-2.936-10.973-2.936c-4.871 0-9.198-.078-9.198 4.118c0 4.204 3.95 7.607 8.821 7.607c4.869 0 11.35-4.586 11.35-8.789"/></g>
    <path fill="#7094a6" d="M8.03 38.13c0 9.657 10.778 17.479 24.09 17.479c13.309 0 24.09-7.821 24.09-17.479c0-9.648-10.781-33.452-24.09-33.452c-13.312 0-24.09 23.804-24.09 33.452"/>
    <ellipse fill="#f4f5f5" cx="22.255" cy="21.395" rx="4.932" ry="5.98"/>
    <path fill="#25333a" d="M25.527 21.625c0 2.192-1.466 3.968-3.27 3.968c-1.808 0-3.274-1.775-3.274-3.968c0-2.189 1.466-3.968 3.274-3.968c1.804 0 3.27 1.779 3.27 3.968"/>
    <ellipse fill="#f4f5f5" cx="42.02" cy="21.395" rx="4.932" ry="5.98"/>
    <ellipse fill="#25333a" cx="42.02" cy="21.625" rx="3.271" ry="3.968"/>
    <path fill="#f05a2a" d="M26.03 27.692c0-2.895 2.725-.708 6.085-.708c3.362 0 6.084-2.187 6.084.708c0 2.9-2.723 8.378-6.084 8.378c-3.36 0-6.085-5.478-6.085-8.378"/>
    <path fill="#f79420" d="M26.03 25.718c0-2.895 2.726-.709 6.084-.709s6.084-2.185 6.084.709c0 2.899-2.726 8.377-6.084 8.377s-6.084-5.478-6.084-8.377"/>
    </g>
    <g id="bird_keytar" transform="translate(830 280) scale(2.5) rotate(25)">
    <g fill="#f79420"><path d="M25.772 60.8c0 1.768-.836 3.2-1.866 3.2c-1.031 0-1.866-1.433-1.866-3.2v-7.393c0-1.768.835-3.2 1.866-3.2c1.03 0 1.866 1.433 1.866 3.2V60.8"/><path d="M39.586 60.8c0 1.768-.836 3.2-1.866 3.2c-1.03 0-1.866-1.433-1.866-3.2v-7.393c0-1.768.836-3.2 1.866-3.2c1.03 0 1.866 1.433 1.866 3.2V60.8"/></g>
    <g fill="#58767d"><path d="M.267 40.94c0-4.198 6.1-2.936 10.968-2.936c4.872 0 9.199-.078 9.199 4.118c0 4.204-3.95 7.607-8.818 7.607c-4.872 0-11.349-4.586-11.349-8.789"/><path d="M63.734 40.94c0-4.198-6.1-2.936-10.973-2.936c-4.871 0-9.198-.078-9.198 4.118c0 4.204 3.95 7.607 8.821 7.607c4.869 0 11.35-4.586 11.35-8.789"/></g>
    <path fill="#7094a6" d="M8.03 38.13c0 9.657 10.778 17.479 24.09 17.479c13.309 0 24.09-7.821 24.09-17.479c0-9.648-10.781-33.452-24.09-33.452c-13.312 0-24.09 23.804-24.09 33.452"/>
    <ellipse fill="#f4f5f5" cx="22.255" cy="21.395" rx="4.932" ry="5.98"/>
    <path fill="#25333a" d="M25.527 21.625c0 2.192-1.466 3.968-3.27 3.968c-1.808 0-3.274-1.775-3.274-3.968c0-2.189 1.466-3.968 3.274-3.968c1.804 0 3.27 1.779 3.27 3.968"/>
    <ellipse fill="#f4f5f5" cx="42.02" cy="21.395" rx="4.932" ry="5.98"/>
    <ellipse fill="#25333a" cx="42.02" cy="21.625" rx="3.271" ry="3.968"/>
    <path fill="#f05a2a" d="M26.03 27.692c0-2.895 2.725-.708 6.085-.708c3.362 0 6.084-2.187 6.084.708c0 2.9-2.723 8.378-6.084 8.378c-3.36 0-6.085-5.478-6.085-8.378"/>
    <path fill="#f79420" d="M26.03 25.718c0-2.895 2.726-.709 6.084-.709s6.084-2.185 6.084.709c0 2.899-2.726 8.377-6.084 8.377s-6.084-5.478-6.084-8.377"/>
    </g>
    <g id="bird_keytar" transform="translate(950 140) scale(2.5) rotate(25)">
    <g fill="#f79420"><path d="M25.772 60.8c0 1.768-.836 3.2-1.866 3.2c-1.031 0-1.866-1.433-1.866-3.2v-7.393c0-1.768.835-3.2 1.866-3.2c1.03 0 1.866 1.433 1.866 3.2V60.8"/><path d="M39.586 60.8c0 1.768-.836 3.2-1.866 3.2c-1.03 0-1.866-1.433-1.866-3.2v-7.393c0-1.768.836-3.2 1.866-3.2c1.03 0 1.866 1.433 1.866 3.2V60.8"/></g>
    <g fill="#58767d"><path d="M.267 40.94c0-4.198 6.1-2.936 10.968-2.936c4.872 0 9.199-.078 9.199 4.118c0 4.204-3.95 7.607-8.818 7.607c-4.872 0-11.349-4.586-11.349-8.789"/><path d="M63.734 40.94c0-4.198-6.1-2.936-10.973-2.936c-4.871 0-9.198-.078-9.198 4.118c0 4.204 3.95 7.607 8.821 7.607c4.869 0 11.35-4.586 11.35-8.789"/></g>
    <path fill="#7094a6" d="M8.03 38.13c0 9.657 10.778 17.479 24.09 17.479c13.309 0 24.09-7.821 24.09-17.479c0-9.648-10.781-33.452-24.09-33.452c-13.312 0-24.09 23.804-24.09 33.452"/>
    <ellipse fill="#f4f5f5" cx="22.255" cy="21.395" rx="4.932" ry="5.98"/>
    <path fill="#25333a" d="M25.527 21.625c0 2.192-1.466 3.968-3.27 3.968c-1.808 0-3.274-1.775-3.274-3.968c0-2.189 1.466-3.968 3.274-3.968c1.804 0 3.27 1.779 3.27 3.968"/>
    <ellipse fill="#f4f5f5" cx="42.02" cy="21.395" rx="4.932" ry="5.98"/>
    <ellipse fill="#25333a" cx="42.02" cy="21.625" rx="3.271" ry="3.968"/>
    <path fill="#f05a2a" d="M26.03 27.692c0-2.895 2.725-.708 6.085-.708c3.362 0 6.084-2.187 6.084.708c0 2.9-2.723 8.378-6.084 8.378c-3.36 0-6.085-5.478-6.085-8.378"/>
    <path fill="#f79420" d="M26.03 25.718c0-2.895 2.726-.709 6.084-.709s6.084-2.185 6.084.709c0 2.899-2.726 8.377-6.084 8.377s-6.084-5.478-6.084-8.377"/>
    </g>
    <g id="bird_keytar" transform="translate(500 50) scale(4.3) rotate(0)">
    <g fill="#f79420"><path d="M25.772 60.8c0 1.768-.836 3.2-1.866 3.2c-1.031 0-1.866-1.433-1.866-3.2v-7.393c0-1.768.835-3.2 1.866-3.2c1.03 0 1.866 1.433 1.866 3.2V60.8"/><path d="M39.586 60.8c0 1.768-.836 3.2-1.866 3.2c-1.03 0-1.866-1.433-1.866-3.2v-7.393c0-1.768.836-3.2 1.866-3.2c1.03 0 1.866 1.433 1.866 3.2V60.8"/></g>
    <g fill="#58767d"><path d="M.267 40.94c0-4.198 6.1-2.936 10.968-2.936c4.872 0 9.199-.078 9.199 4.118c0 4.204-3.95 7.607-8.818 7.607c-4.872 0-11.349-4.586-11.349-8.789"/><path d="M63.734 40.94c0-4.198-6.1-2.936-10.973-2.936c-4.871 0-9.198-.078-9.198 4.118c0 4.204 3.95 7.607 8.821 7.607c4.869 0 11.35-4.586 11.35-8.789"/></g>
    <path fill="#7094a6" d="M8.03 38.13c0 9.657 10.778 17.479 24.09 17.479c13.309 0 24.09-7.821 24.09-17.479c0-9.648-10.781-33.452-24.09-33.452c-13.312 0-24.09 23.804-24.09 33.452"/>
    <ellipse fill="#f4f5f5" cx="22.255" cy="21.395" rx="4.932" ry="5.98"/>
    <path fill="#25333a" d="M25.527 21.625c0 2.192-1.466 3.968-3.27 3.968c-1.808 0-3.274-1.775-3.274-3.968c0-2.189 1.466-3.968 3.274-3.968c1.804 0 3.27 1.779 3.27 3.968"/>
    <ellipse fill="#f4f5f5" cx="42.02" cy="21.395" rx="4.932" ry="5.98"/>
    <ellipse fill="#25333a" cx="42.02" cy="21.625" rx="3.271" ry="3.968"/>
    <path fill="#f05a2a" d="M26.03 27.692c0-2.895 2.725-.708 6.085-.708c3.362 0 6.084-2.187 6.084.708c0 2.9-2.723 8.378-6.084 8.378c-3.36 0-6.085-5.478-6.085-8.378"/>
    <path fill="#f79420" d="M26.03 25.718c0-2.895 2.726-.709 6.084-.709s6.084-2.185 6.084.709c0 2.899-2.726 8.377-6.084 8.377s-6.084-5.478-6.084-8.377"/>
    </g>

  </g>
</svg>


