<svg xmlns="http://www.w3.org/2000/svg" viewBox="0 0 1440 320"><path fill="#25c2a0" fill-opacity="1" d="M0,160L21.8,154.7C43.6,149,87,139,131,154.7C174.5,171,218,213,262,234.7C305.5,256,349,256,393,266.7C436.4,277,480,299,524,288C567.3,277,611,235,655,224C698.2,213,742,235,785,224C829.1,213,873,171,916,170.7C960,171,1004,213,1047,245.3C1090.9,277,1135,299,1178,277.3C1221.8,256,1265,192,1309,160C1352.7,128,1396,128,1418,128L1440,128L1440,0L1418.2,0C1396.4,0,1353,0,1309,0C1265.5,0,1222,0,1178,0C1134.5,0,1091,0,1047,0C1003.6,0,960,0,916,0C872.7,0,829,0,785,0C741.8,0,698,0,655,0C610.9,0,567,0,524,0C480,0,436,0,393,0C349.1,0,305,0,262,0C218.2,0,175,0,131,0C87.3,0,44,0,44,0,44,0,44,0,44,0,44,0,44,0,44,0,44,0,44,0,22,0L0,0Z"></path></svg>